<svg id="Capa_1" enable-background="new 0 0 512 512" height="512" viewBox="0 0 512 512" width="512" xmlns="http://www.w3.org/2000/svg"><g><path d="m256 90c-57.897 0-105 47.103-105 105s47.103 105 105 105 105-47.103 105-105-47.103-105-105-105zm-35 65c-8.284 0-15-6.716-15-15s6.716-15 15-15 15 6.716 15 15-6.716 15-15 15zm35 50c-8.284 0-15-6.716-15-15s6.716-15 15-15 15 6.716 15 15-6.716 15-15 15zm35-50c-8.284 0-15-6.716-15-15s6.716-15 15-15 15 6.716 15 15-6.716 15-15 15z"/><path d="m256 0c-107.523 0-195 87.477-195 195 0 41.737 13.069 81.561 37.795 115.165 22.835 31.035 53.668 54.29 89.49 67.572l44.92 104.263h-97.205c-8.284 0-15 6.716-15 15s6.716 15 15 15h240c8.284 0 15-6.716 15-15s-6.716-15-15-15h-97.205l44.92-104.263c35.822-13.282 66.655-36.537 89.49-67.572 24.726-33.604 37.795-73.428 37.795-115.165 0-107.523-87.477-195-195-195zm0 330c-74.439 0-135-60.561-135-135s60.561-135 135-135 135 60.561 135 135-60.561 135-135 135z"/></g></svg>